/* XPM */
static char * mail_open_xpm[] = {
"11 12 39 1",
" 	c None",
".	c #FFFFFF",
"+	c #000000",
"@	c #C0C0C0",
"#	c #404040",
"$	c #808080",
"%	c #555555",
"&	c #D0D0D0",
"*	c #4B4B4B",
"=	c #CECECE",
"-	c #CBCBCB",
";	c #3F3F3F",
">	c #E4E4E4",
",	c #E7E7E7",
"'	c #E9E9E9",
")	c #F6F6F6",
"!	c #F2F2F2",
"~	c #F7F7F7",
"{	c #F9F9F9",
"]	c #EEEEEE",
"^	c #D3D3D3",
"/	c #545454",
"(	c #303030",
"_	c #3C3C3C",
":	c #3B3B3B",
"<	c #313131",
"[	c #A8A8A8",
"}	c #FEFEFE",
"|	c #707070",
"1	c #696969",
"2	c #F0F0F0",
"3	c #919191",
"4	c #353535",
"5	c #ABABAB",
"6	c #414141",
"7	c #BFBFBF",
"8	c #2F2F2F",
"9	c #393939",
"0	c #898989",
"....+@+....",
"..##$..#%&.",
".*=-....&+&",
";>,')!~{]^+",
"+#......./+",
"+@(_&.=:(@+",
"+..&+.<[..+",
"+..}|+12..+",
"+.}3456&..+",
"+7#;..&89.+",
";+.....20<+",
"+;+++++++++"};
