/* XPM */
static char * mail_closed_xpm[] = {
"11 13 25 1",
" 	c None",
".	c #FFFFFF",
"+	c #000000",
"@	c #404040",
"#	c #C0C0C0",
"$	c #303030",
"%	c #3C3C3C",
"&	c #D0D0D0",
"*	c #CECECE",
"=	c #3B3B3B",
"-	c #313131",
";	c #A8A8A8",
">	c #FEFEFE",
",	c #707070",
"'	c #696969",
")	c #F0F0F0",
"!	c #919191",
"~	c #353535",
"{	c #ABABAB",
"]	c #414141",
"^	c #BFBFBF",
"/	c #3F3F3F",
"(	c #2F2F2F",
"_	c #393939",
":	c #898989",
"...........",
"...........",
"...........",
"...........",
"+++++++++++",
"+@.......++",
"+#$%&.*=$#+",
"+..&+.-;..+",
"+..>,+')..+",
"+.>!~{]&..+",
"+^@/..&(_.+",
"/+.....):-+",
"+/+++++++++"};
